<svg width="371" height="177" viewBox="0 0 371 177" fill="none" xmlns="http://www.w3.org/2000/svg">
<path d="M30 145.794V88.2534H48.5774C52.9615 88.2534 56.9619 88.9384 60.5788 90.3084C64.1956 91.6785 67.3193 93.6239 69.9497 96.1447C72.5802 98.6656 74.6078 101.707 76.0326 105.269C77.4574 108.776 78.1698 112.695 78.1698 117.024C78.1698 121.353 77.4574 125.299 76.0326 128.861C74.6078 132.368 72.5802 135.382 69.9497 137.903C67.3193 140.424 64.1956 142.369 60.5788 143.739C56.9619 145.109 52.9615 145.794 48.5774 145.794H30ZM39.9463 136.67H48.3308C51.1805 136.67 53.8109 136.259 56.2221 135.437C58.6334 134.615 60.7432 133.382 62.5516 131.738C64.3601 130.094 65.7575 128.039 66.7439 125.573C67.7303 123.107 68.2235 120.257 68.2235 117.024C68.2235 113.791 67.7303 110.941 66.7439 108.475C65.7575 106.009 64.3601 103.954 62.5516 102.31C60.7432 100.666 58.6334 99.4328 56.2221 98.6107C53.8109 97.7887 51.1805 97.3777 48.3308 97.3777H39.9463V136.67Z" fill="black"/>
<path d="M87.623 145.794V88.2534H122.641V96.8023H97.1584V110.777H120.997V119.161H97.1584V137.245H122.641V145.794H87.623Z" fill="black"/>
<path d="M173.441 88.2534H184.62L156.507 149L128.395 88.2534H139.574L156.507 128.696L173.441 88.2534Z" fill="black"/>
<path d="M255.97 145.794V88.2534H273.315C277.534 88.2534 281.179 88.9932 284.247 90.4728C287.316 91.8977 289.7 93.9527 291.399 96.6379C293.098 99.3232 293.947 102.502 293.947 106.173C293.947 109.845 293.098 113.023 291.399 115.709C289.7 118.339 287.316 120.394 284.247 121.874C281.179 123.299 277.534 124.011 273.315 124.011H265.67V145.794H255.97ZM265.67 115.462H273.315C275.561 115.462 277.507 115.133 279.151 114.476C280.795 113.763 282.083 112.722 283.014 111.352C283.946 109.927 284.412 108.201 284.412 106.173C284.412 104.091 283.946 102.365 283.014 100.995C282.083 99.6246 280.795 98.5833 279.151 97.8709C277.507 97.1585 275.561 96.8023 273.315 96.8023H265.67V115.462Z" fill="black"/>
<path d="M307.263 127.217C308.524 129.409 309.867 131.354 311.291 133.053C312.771 134.697 314.388 135.985 316.141 136.916C317.95 137.848 319.922 138.314 322.06 138.314C323.868 138.314 325.43 138.012 326.745 137.41C328.06 136.752 329.074 135.848 329.787 134.697C330.554 133.546 330.937 132.204 330.937 130.669C330.937 128.532 330.417 126.833 329.376 125.573C328.334 124.257 326.882 123.161 325.019 122.285C323.21 121.353 321.101 120.449 318.689 119.572C317.265 119.079 315.675 118.421 313.922 117.599C312.168 116.777 310.497 115.736 308.908 114.476C307.318 113.16 306.003 111.544 304.962 109.626C303.921 107.708 303.4 105.406 303.4 102.721C303.4 99.652 304.195 96.9668 305.784 94.6652C307.373 92.3087 309.51 90.5003 312.196 89.2399C314.936 87.9247 318.032 87.2671 321.484 87.2671C324.882 87.2671 327.841 87.8699 330.362 89.0755C332.883 90.2811 334.993 91.8155 336.691 93.6788C338.445 95.542 339.815 97.4874 340.802 99.515L332.91 103.954C332.143 102.529 331.211 101.214 330.115 100.008C329.074 98.8026 327.841 97.8162 326.416 97.049C324.992 96.2818 323.293 95.8982 321.32 95.8982C319.566 95.8982 318.087 96.1996 316.881 96.8024C315.73 97.3504 314.881 98.0902 314.333 99.0218C313.785 99.9534 313.511 100.967 313.511 102.063C313.511 103.214 313.757 104.255 314.251 105.187C314.744 106.118 315.511 106.995 316.552 107.817C317.593 108.639 318.936 109.434 320.58 110.201C322.279 110.968 324.279 111.763 326.581 112.585C328.334 113.188 330.061 113.955 331.759 114.887C333.458 115.818 335.02 116.969 336.445 118.339C337.924 119.709 339.075 121.353 339.897 123.271C340.774 125.134 341.213 127.326 341.213 129.847C341.213 132.532 340.664 134.944 339.568 137.081C338.527 139.163 337.102 140.944 335.294 142.424C333.486 143.904 331.431 145.027 329.129 145.794C326.882 146.616 324.526 147.027 322.06 147.027C318.717 147.027 315.593 146.37 312.689 145.054C309.839 143.684 307.318 141.903 305.126 139.711C302.989 137.464 301.29 134.998 300.03 132.313L307.263 127.217Z" fill="black"/>
<path d="M246.794 95.6486C246.234 95.6499 245.779 95.197 245.778 94.6369C245.777 94.0769 246.23 93.6218 246.79 93.6205C247.35 93.6192 247.805 94.0722 247.806 94.6322C247.807 95.1922 247.354 95.6473 246.794 95.6486Z" fill="black"/>
<path d="M247.814 97.9812C247.814 97.876 247.437 95.5024 247.13 94.407C246.804 93.6712 246.487 94.1893 246.454 94.4086C246.254 95.5928 245.786 97.8807 245.786 97.9859C245.786 98.1174 247.814 98.1127 247.814 97.9812Z" fill="black"/>
<path fill-rule="evenodd" clip-rule="evenodd" d="M219.086 72.5928C217.742 72.4284 216.925 74.0295 217.846 75.0212L229.53 87.6042C230.244 88.3738 231.257 88.796 232.307 88.7618L249.349 88.2062C250.701 88.1621 251.263 86.4566 250.203 85.6174L237.228 75.3487C236.705 74.935 236.079 74.6733 235.417 74.5923L219.086 72.5928ZM234.937 79.9662C234.42 79.752 234.139 79.2428 234.31 78.8288C234.482 78.4148 235.04 78.2529 235.558 78.4671C236.075 78.6813 236.356 79.1905 236.184 79.6045C236.013 80.0184 235.455 80.1804 234.937 79.9662Z" fill="black"/>
<path d="M236.387 80.0894C236.754 80.2414 245.776 86.5425 246.683 88.3568C246.794 89.2293 247.227 93.074 247.227 94.344H246.32C246.32 94.344 246.139 89.8083 245.595 88.5382C245.05 87.2682 236.334 80.9316 236.107 80.7654C235.282 80.1598 236.387 80.0894 236.387 80.0894Z" fill="black"/>
<path fill-rule="evenodd" clip-rule="evenodd" d="M219.714 78.3777C219.46 78.9942 219.077 79.9786 218.63 81.1291C217.981 82.7962 217.197 84.8119 216.473 86.5608C225.456 93.9583 228.54 95.5913 240.333 97.0427L244.154 89.4014L232.02 89.797C230.971 89.8313 229.958 89.409 229.243 88.6394L219.714 78.3777Z" fill="black"/>
<path fill-rule="evenodd" clip-rule="evenodd" d="M215.053 87C224.747 94.9789 228.198 96.8734 240.909 98.4448C242.38 100.374 243.59 102.517 244.541 104.876C246.02 108.493 246.76 112.438 246.76 116.713C246.76 120.987 246.02 124.96 244.541 128.632C243.061 132.249 240.979 135.427 238.293 138.167C235.608 140.853 232.43 142.962 228.758 144.497C225.141 145.976 221.168 146.716 216.839 146.716C212.51 146.716 208.537 145.976 204.92 144.497C201.303 142.962 198.152 140.853 195.467 138.167C192.781 135.427 190.699 132.249 189.219 128.632C187.74 124.96 187 120.987 187 116.713C187 112.438 187.74 108.493 189.219 104.876C190.699 101.204 192.781 98.0532 195.467 95.4227C198.207 92.7375 201.385 90.6551 205.002 89.1755C208.11 87.9041 211.46 87.179 215.053 87ZM198.673 124.933C197.741 122.412 197.275 119.672 197.275 116.713C197.275 113.754 197.741 111.041 198.673 108.575C199.659 106.054 201.029 103.89 202.783 102.081C204.536 100.218 206.591 98.793 208.948 97.8066C211.359 96.7653 214.017 96.2447 216.921 96.2447C219.771 96.2447 222.374 96.7653 224.73 97.8066C227.142 98.793 229.224 100.218 230.978 102.081C232.731 103.89 234.074 106.054 235.005 108.575C235.937 111.041 236.403 113.754 236.403 116.713C236.403 119.672 235.91 122.412 234.923 124.933C233.992 127.399 232.649 129.564 230.895 131.427C229.142 133.235 227.059 134.66 224.648 135.701C222.292 136.688 219.689 137.181 216.839 137.181C213.989 137.181 211.359 136.688 208.948 135.701C206.591 134.66 204.536 133.235 202.783 131.427C201.029 129.564 199.659 127.399 198.673 124.933Z" fill="black"/>
<path d="M30 43.5173V42.3052H33.436V55.7248L34.9918 55.9921V57.1947H30V55.9921L31.5558 55.7248V43.7846L30 43.5173Z" fill="black"/>
<path d="M41.1288 57.3951C39.6908 57.3951 38.5454 56.9178 37.6928 55.9634C36.8465 55.0026 36.4233 53.7586 36.4233 52.2314V51.8115C36.4233 50.3416 36.8592 49.1199 37.7309 48.1464C38.609 47.1665 39.6462 46.6765 40.8425 46.6765C42.2296 46.6765 43.2795 47.0965 43.9922 47.9364C44.7112 48.7763 45.0707 49.8962 45.0707 51.2961V52.4701H38.3704L38.3418 52.5178C38.3609 53.5104 38.6122 54.328 39.0958 54.9707C39.5794 55.607 40.2571 55.9252 41.1288 55.9252C41.7651 55.9252 42.3219 55.8361 42.7991 55.6579C43.2827 55.4734 43.6995 55.222 44.0494 54.9039L44.7844 56.1256C44.4153 56.4819 43.9254 56.7842 43.3145 57.0323C42.71 57.2741 41.9815 57.395 41.1288 57.395V57.3951ZM40.8425 48.1559C40.2125 48.1559 39.6749 48.4232 39.2294 48.9577C38.784 49.4858 38.5104 50.1507 38.4086 50.9525L38.4277 51.0002H43.1904V50.752C43.1904 50.0139 42.9932 49.3967 42.5986 48.9004C42.2041 48.404 41.6187 48.1559 40.8424 48.1559H40.8425Z" fill="black"/>
<path d="M54.8255 50.1126H53.413L53.1075 48.8718C52.8785 48.6554 52.5889 48.4836 52.239 48.3564C51.8954 48.2227 51.504 48.1559 51.065 48.1559C50.3969 48.1559 49.9006 48.3023 49.576 48.595C49.2515 48.8877 49.0893 49.2408 49.0893 49.6544C49.0893 50.0617 49.2324 50.383 49.5188 50.6184C49.8051 50.8539 50.3873 51.0638 51.2654 51.2484C52.5698 51.5283 53.5402 51.9101 54.1765 52.3937C54.8128 52.8709 55.131 53.5136 55.131 54.3217C55.131 55.238 54.7587 55.9793 54.0143 56.5456C53.2761 57.1119 52.309 57.3951 51.1127 57.3951C50.3301 57.3951 49.6269 57.306 49.0034 57.1278C48.3798 56.9433 47.823 56.6792 47.3331 56.3356L47.3233 53.9781H48.7359L49.089 55.3621C49.3054 55.5593 49.5981 55.7025 49.9671 55.7916C50.3426 55.8807 50.7243 55.9252 51.1125 55.9252C51.7806 55.9252 52.3024 55.7916 52.6778 55.5243C53.0596 55.2507 53.2505 54.8944 53.2505 54.4553C53.2505 54.0417 53.0914 53.7013 52.7732 53.4341C52.4615 53.1668 51.8665 52.9346 50.9884 52.7373C49.7349 52.4637 48.79 52.0915 48.1537 51.6206C47.5174 51.1497 47.1992 50.5134 47.1992 49.7117C47.1992 48.8718 47.5555 48.1559 48.2682 47.5642C48.9872 46.9724 49.9194 46.6765 51.0648 46.6765C51.8474 46.6765 52.5505 46.7783 53.1741 46.9819C53.7977 47.1856 54.3163 47.4687 54.7299 47.8314L54.8255 50.1126Z" fill="black"/>
<path d="M89.5965 38.7736H85.4542L84.8815 35.0703C84.3343 34.5231 83.6407 34.0904 82.8008 33.7723C81.9736 33.4541 80.9937 33.2951 79.8611 33.2951C77.4431 33.2951 75.5787 34.1731 74.2679 35.9293C72.9699 37.6856 72.3208 39.9763 72.3208 42.8014V43.775C72.3208 46.6002 72.9699 48.8972 74.2679 50.6662C75.566 52.4351 77.3986 53.3195 79.7656 53.3195C80.8601 53.3195 81.859 53.1605 82.7626 52.8423C83.6789 52.5242 84.3852 52.0915 84.8815 51.5443L85.4542 47.841H89.5965V53.3386C88.4766 54.6367 87.0449 55.6739 85.3015 56.4502C83.5707 57.2137 81.63 57.5955 79.4793 57.5955C75.7505 57.5955 72.6963 56.3038 70.3165 53.7204C67.9367 51.137 66.7468 47.8219 66.7468 43.775V42.8396C66.7468 38.8054 67.9304 35.4903 70.2974 32.8942C72.6645 30.2981 75.7251 29 79.4793 29C81.63 29 83.5707 29.3945 85.3015 30.1835C87.0322 30.9598 88.4639 31.9906 89.5965 33.276V38.7736Z" fill="black"/>
<path d="M92.2878 46.6766C92.2878 43.5968 93.1469 41.0771 94.8649 39.1173C96.5956 37.1447 98.9818 36.1584 102.023 36.1584C105.078 36.1584 107.464 37.1384 109.182 39.0982C110.913 41.058 111.778 43.5841 111.778 46.6766V47.0774C111.778 50.1826 110.913 52.7151 109.182 54.6749C107.464 56.622 105.09 57.5955 102.062 57.5955C98.9945 57.5955 96.5956 56.622 94.8649 54.6749C93.1469 52.7151 92.2878 50.1826 92.2878 47.0774V46.6766ZM97.8619 47.0774C97.8619 48.9609 98.1927 50.4753 98.8545 51.6206C99.5163 52.7533 100.585 53.3196 102.062 53.3196C103.5 53.3196 104.549 52.7469 105.211 51.6015C105.886 50.4562 106.223 48.9482 106.223 47.0774V46.6766C106.223 44.844 105.886 43.3487 105.211 42.1906C104.537 41.0325 103.474 40.4535 102.023 40.4535C100.573 40.4535 99.5163 41.0325 98.8545 42.1906C98.1927 43.3487 97.8619 44.844 97.8619 46.6766V47.0774Z" fill="black"/>
<path d="M113.553 39.8999V36.5402H121.704L121.933 39.27C122.595 38.2773 123.422 37.5138 124.414 36.9793C125.42 36.4321 126.578 36.1584 127.889 36.1584C129.212 36.1584 130.345 36.4511 131.287 37.0365C132.228 37.6219 132.941 38.5064 133.425 39.6899C134.061 38.5828 134.888 37.7174 135.906 37.0938C136.924 36.4702 138.12 36.1584 139.495 36.1584C141.531 36.1584 143.135 36.8647 144.305 38.2773C145.489 39.6772 146.081 41.8152 146.081 44.6913V53.2814L148.772 53.8541V57.1947H138.101V53.8541L140.507 53.2814V44.6722C140.507 43.1069 140.252 42.0188 139.743 41.408C139.234 40.7971 138.477 40.4917 137.471 40.4917C136.682 40.4917 135.995 40.6698 135.41 41.0262C134.837 41.3698 134.379 41.8534 134.035 42.4769C134.035 42.7187 134.042 42.9287 134.054 43.1069C134.067 43.2723 134.073 43.4441 134.073 43.6223V53.2814L136.326 53.8541V57.1947H126.266V53.8541L128.519 53.2814V44.6722C128.519 43.1451 128.264 42.0697 127.755 41.4461C127.246 40.8098 126.482 40.4917 125.464 40.4917C124.714 40.4917 124.052 40.638 123.479 40.9307C122.919 41.2107 122.455 41.6116 122.086 42.1333V53.2814L124.491 53.8541V57.1947H113.839V53.8541L116.531 53.2814V40.4726L113.553 39.8999Z" fill="black"/>
<path d="M150.147 39.8999V36.5402H158.241L158.508 38.9455C159.119 38.0546 159.851 37.3674 160.703 36.8838C161.556 36.4002 162.549 36.1584 163.681 36.1584C166.239 36.1584 168.224 37.1574 169.637 39.1554C171.05 41.1534 171.756 43.7814 171.756 47.0392V47.4401C171.756 50.4944 171.05 52.9505 169.637 54.8085C168.224 56.6665 166.252 57.5955 163.719 57.5955C162.638 57.5955 161.677 57.3983 160.837 57.0038C159.997 56.5965 159.278 56.0048 158.68 55.2285V61.2034L161.371 61.776V65.1357H150.433V61.776L153.125 61.2034V40.4726L150.147 39.8999ZM166.182 47.0392C166.182 45.0922 165.857 43.5141 165.208 42.3051C164.559 41.0962 163.567 40.4917 162.23 40.4917C161.39 40.4917 160.671 40.6635 160.073 41.0071C159.488 41.3507 159.023 41.8406 158.68 42.4769V51.5252C159.023 52.1106 159.488 52.556 160.073 52.8614C160.671 53.1669 161.403 53.3196 162.269 53.3196C163.618 53.3196 164.604 52.7914 165.227 51.7352C165.864 50.6789 166.182 49.2472 166.182 47.4401V47.0392Z" fill="black"/>
<path d="M187.39 57.1947C187.237 56.8511 187.103 56.5011 186.989 56.1448C186.874 55.7757 186.785 55.4066 186.722 55.0376C186.06 55.8012 185.252 56.4184 184.297 56.8892C183.356 57.3601 182.274 57.5955 181.052 57.5955C179.029 57.5955 177.419 57.0483 176.223 55.9539C175.039 54.8467 174.447 53.345 174.447 51.4488C174.447 49.5145 175.224 48.0192 176.776 46.9629C178.329 45.9066 180.607 45.3785 183.61 45.3785H186.454V43.355C186.454 42.3624 186.168 41.5925 185.595 41.0453C185.023 40.498 184.176 40.2244 183.056 40.2244C182.42 40.2244 181.854 40.3008 181.358 40.4535C180.861 40.5935 180.46 40.7653 180.155 40.9689L179.792 43.1832H175.593L175.612 38.6018C176.63 37.9146 177.794 37.3356 179.105 36.8647C180.428 36.3939 181.867 36.1584 183.419 36.1584C185.977 36.1584 188.051 36.7884 189.642 38.0483C191.246 39.2954 192.047 41.0771 192.047 43.3932V51.9261C192.047 52.2442 192.047 52.5433 192.047 52.8233C192.06 53.1032 192.086 53.3705 192.124 53.625L193.823 53.8541V57.1947H187.39ZM182.56 53.4723C183.4 53.4723 184.164 53.2941 184.851 52.9378C185.538 52.5687 186.073 52.1106 186.454 51.5634V48.4137H183.61C182.427 48.4137 181.529 48.6936 180.918 49.2536C180.308 49.8008 180.002 50.4626 180.002 51.2389C180.002 51.9388 180.225 52.486 180.67 52.8805C181.128 53.275 181.758 53.4723 182.56 53.4723Z" fill="black"/>
<path d="M196.057 47.0392C196.057 43.7814 196.763 41.1534 198.176 39.1554C199.601 37.1574 201.592 36.1584 204.15 36.1584C205.309 36.1584 206.327 36.4193 207.205 36.9411C208.083 37.4501 208.834 38.1819 209.457 39.1364L209.858 36.5402H214.707V56.5838C214.707 59.3072 213.848 61.477 212.13 63.0932C210.424 64.7221 208.076 65.5366 205.086 65.5366C204.042 65.5366 202.935 65.3903 201.764 65.0976C200.593 64.8176 199.512 64.4294 198.519 63.9331L199.55 60.0199C200.441 60.4016 201.332 60.7007 202.222 60.917C203.113 61.1461 204.055 61.2606 205.048 61.2606C206.409 61.2606 207.427 60.847 208.102 60.0199C208.776 59.1927 209.114 58.0409 209.114 56.5647V55.2094C208.503 55.9857 207.784 56.5774 206.957 56.9847C206.129 57.3919 205.181 57.5955 204.112 57.5955C201.58 57.5955 199.601 56.6665 198.176 54.8085C196.763 52.9378 196.057 50.4817 196.057 47.4401V47.0392ZM201.631 47.4401C201.631 49.2472 201.936 50.6725 202.547 51.7161C203.158 52.7469 204.15 53.2623 205.525 53.2623C206.377 53.2623 207.097 53.1096 207.682 52.8042C208.28 52.486 208.757 52.0279 209.114 51.4297V42.4579C208.757 41.8343 208.28 41.3507 207.682 41.0071C207.097 40.6635 206.39 40.4917 205.563 40.4917C204.201 40.4917 203.202 41.0962 202.566 42.3051C201.942 43.5141 201.631 45.0922 201.631 47.0392V47.4401Z" fill="black"/>
<path d="M217.741 53.8541L220.414 53.2814V40.4726L217.455 39.8999V36.5402H225.606L225.854 39.499C226.542 38.4428 227.388 37.6219 228.393 37.0365C229.399 36.4511 230.525 36.1584 231.772 36.1584C233.859 36.1584 235.488 36.8138 236.659 38.1246C237.83 39.4354 238.415 41.4907 238.415 44.2904V53.2814L241.087 53.8541V57.1947H230.436V53.8541L232.822 53.2814V44.3095C232.822 42.9224 232.542 41.9425 231.982 41.3698C231.422 40.7844 230.576 40.4917 229.443 40.4917C228.705 40.4917 228.043 40.6444 227.458 40.9498C226.872 41.2425 226.382 41.6625 225.988 42.2097V53.2814L228.24 53.8541V57.1947H217.741V53.8541Z" fill="black"/>
<path d="M242.672 46.6766C242.672 43.5968 243.531 41.0771 245.249 39.1173C246.98 37.1447 249.366 36.1584 252.408 36.1584C255.462 36.1584 257.848 37.1384 259.566 39.0982C261.297 41.058 262.162 43.5841 262.162 46.6766V47.0774C262.162 50.1826 261.297 52.7151 259.566 54.6749C257.848 56.622 255.475 57.5955 252.446 57.5955C249.379 57.5955 246.98 56.622 245.249 54.6749C243.531 52.7151 242.672 50.1826 242.672 47.0774V46.6766ZM248.246 47.0774C248.246 48.9609 248.577 50.4753 249.239 51.6206C249.901 52.7533 250.97 53.3196 252.446 53.3196C253.884 53.3196 254.934 52.7469 255.595 51.6015C256.27 50.4562 256.607 48.9482 256.607 47.0774V46.6766C256.607 44.844 256.27 43.3487 255.595 42.1906C254.921 41.0325 253.858 40.4535 252.408 40.4535C250.957 40.4535 249.901 41.0325 249.239 42.1906C248.577 43.3487 248.246 44.844 248.246 46.6766V47.0774Z" fill="black"/>
<path d="M264.28 53.8541L266.953 53.2814V40.4726L263.994 39.8999V36.5402H272.145L272.393 39.499C273.081 38.4428 273.927 37.6219 274.932 37.0365C275.938 36.4511 277.064 36.1584 278.311 36.1584C280.398 36.1584 282.027 36.8138 283.198 38.1246C284.369 39.4354 284.954 41.4907 284.954 44.2904V53.2814L287.626 53.8541V57.1947H276.975V53.8541L279.361 53.2814V44.3095C279.361 42.9224 279.081 41.9425 278.521 41.3698C277.961 40.7844 277.115 40.4917 275.982 40.4917C275.244 40.4917 274.582 40.6444 273.997 40.9498C273.411 41.2425 272.921 41.6625 272.527 42.2097V53.2814L274.779 53.8541V57.1947H264.28V53.8541Z" fill="black"/>
<path d="M306.258 43.6413H302.516L301.924 41.0643C301.543 40.7588 301.059 40.5043 300.474 40.3007C299.901 40.0971 299.265 39.9953 298.565 39.9953C297.585 39.9953 296.809 40.218 296.236 40.6634C295.663 41.0961 295.377 41.6433 295.377 42.3051C295.377 42.9286 295.651 43.4504 296.198 43.8704C296.745 44.2776 297.839 44.6403 299.481 44.9584C302.039 45.4675 303.935 46.2183 305.17 47.211C306.404 48.1909 307.021 49.5462 307.021 51.2769C307.021 53.1349 306.22 54.6557 304.616 55.8392C303.025 57.01 300.925 57.5954 298.317 57.5954C296.726 57.5954 295.262 57.3664 293.926 56.9082C292.603 56.4374 291.425 55.7692 290.395 54.9039L290.337 50.2652H294.232L294.995 52.9568C295.326 53.2368 295.778 53.4467 296.35 53.5867C296.923 53.714 297.521 53.7776 298.145 53.7776C299.277 53.7776 300.136 53.574 300.722 53.1668C301.32 52.7595 301.619 52.2059 301.619 51.506C301.619 50.8952 301.32 50.367 300.722 49.9216C300.124 49.4762 299.023 49.0817 297.419 48.7381C294.989 48.2418 293.15 47.51 291.903 46.5428C290.668 45.5629 290.051 44.2331 290.051 42.5532C290.051 40.8225 290.764 39.3335 292.189 38.0864C293.614 36.8265 295.644 36.1965 298.278 36.1965C299.882 36.1965 301.396 36.4129 302.822 36.8456C304.26 37.2783 305.386 37.8318 306.2 38.5063L306.258 43.6413Z" fill="black"/>
<path d="M325.843 55.9634C325.506 56.4343 325.092 56.7906 324.602 57.0324C324.119 57.2742 323.556 57.3951 322.913 57.3951C321.653 57.3951 320.667 56.9402 319.954 56.0302C319.248 55.114 318.895 53.9113 318.895 52.4224V52.222C318.895 50.5612 319.248 49.2218 319.954 48.2037C320.667 47.1856 321.66 46.6766 322.932 46.6766C323.543 46.6766 324.081 46.7911 324.545 47.0202C325.016 47.2429 325.417 47.5674 325.748 47.9937V43.7846L324.192 43.5173V42.3052H325.748H327.628V55.7248L329.184 55.9921V57.1947H325.996L325.843 55.9634ZM320.775 52.4224C320.775 53.4596 320.988 54.2931 321.415 54.9231C321.841 55.553 322.499 55.868 323.39 55.868C323.95 55.868 324.421 55.7407 324.803 55.4862C325.185 55.2317 325.5 54.8722 325.748 54.4077V49.6163C325.506 49.1836 325.191 48.84 324.803 48.5855C324.415 48.331 323.95 48.2037 323.409 48.2037C322.512 48.2037 321.847 48.5759 321.415 49.3204C320.988 50.0649 320.775 51.0321 320.775 52.222V52.4224Z" fill="black"/>
<path d="M338.003 55.6675C337.679 56.2211 337.259 56.6474 336.743 56.9465C336.234 57.2456 335.646 57.3951 334.978 57.3951C333.858 57.3951 332.983 57.0356 332.353 56.3165C331.723 55.5975 331.408 54.4776 331.408 52.9569V48.3468L330.224 48.0796V46.8674H331.408H333.288V52.976C333.288 54.0768 333.45 54.834 333.775 55.2476C334.099 55.6612 334.605 55.868 335.293 55.868C335.961 55.868 336.511 55.7343 336.944 55.4671C337.383 55.1935 337.714 54.8085 337.936 54.3122V48.3468L336.552 48.0796V46.8674H337.936H339.817V55.7248L341 55.992V57.1946H338.127L338.003 55.6675Z" fill="black"/>
</svg>
